# xmcd
#
# Track frame offsets:
#	150
#	15304
#	31960
#	50239
#	65851
#	79256
#	94907
#	108340
#	121576
#	134424
#	146324
#	164909
#	180675
#
# Disc length: 2474 seconds
#
# Revision: 0
# Processed by: cddbd v1.5.2PL0 Copyright (c) Steve Scherf et al.
# Submitted via: EasyCDDAExtractor 2010.6.0.0
#
DISCID=b609a80d
DTITLE=Laura Cash - Awake but Dreaming
DYEAR=2010
DGENRE=Country
TTITLE0=Awake but Dreaming
TTITLE1=The Image of Me
TTITLE2=Wasted Love
TTITLE3=Strange
TTITLE4=Tomorrow I'll Cry
TTITLE5=Before I'm Over You
TTITLE6=Look What You've Done
TTITLE7=I Was a Little too Lonely
TTITLE8=Who'll Be the First
TTITLE9=Twinkle Little Star
TTITLE10=Song for Roy (Country Music's King)
TTITLE11=Matthew Twenty-Four
TTITLE12=Sadness
EXTD=
EXTT0=
EXTT1=
EXTT2=
EXTT3=
EXTT4=
EXTT5=
EXTT6=
EXTT7=
EXTT8=
EXTT9=
EXTT10=
EXTT11=
EXTT12=
PLAYORDER=
